<svg width="2741" height="1589" viewBox="0 0 2741 1589" fill="none" xmlns="http://www.w3.org/2000/svg">
<path id="Main Page Text Holder" d="M26.1679 188.297C94.4628 -127.343 607.464 37.2852 975.164 90.5769C1265.6 132.671 1511.21 169.964 1876.21 91.4878C2393.11 -19.6503 2582.65 6.76772 2663.55 158.444C2737.19 296.519 2696.3 467.701 2669.23 636.247C2609.08 1010.65 2857.41 1322.21 2669.23 1492.1C2481.05 1662 1902.39 1573.18 1352.89 1492.1C803.389 1411.02 409.718 1711.64 138.614 1442C-132.491 1172.35 77.655 875.58 77.655 660.178C77.655 417.406 0.293614 307.881 26.1679 188.297Z" fill="url(#paint0_linear_5_2)"/>
<defs>
<linearGradient id="paint0_linear_5_2" x1="1370.76" y1="-1369.46" x2="1370.5" y2="1589" gradientUnits="userSpaceOnUse">
<stop stop-color="#DBC7C0" stop-opacity="0"/>
<stop offset="1" stop-color="#AAA2B1"/>
</linearGradient>
</defs>
</svg>
