<?xml version="1.0" encoding="UTF-8"?>
<svg id="svg2" xmlns="http://www.w3.org/2000/svg" viewBox="0 0 93.66 41.67">
  <defs>
    <style>
      .cls-1 {
        stroke-width: 0px;
      }
    </style>
  </defs>
  <path id="path4" class="cls-1" d="m80.83,41.67c-5.6,0-10.48-3.63-12.18-8.84H25.01c-1.7,5.21-6.58,8.84-12.18,8.84-7.08,0-12.83-5.76-12.83-12.84,0-2.91,1.02-5.74,2.84-8-1.82-2.27-2.84-5.09-2.84-8C0,5.76,5.76,0,12.83,0c5.6,0,10.48,3.63,12.18,8.84h43.64c1.7-5.21,6.58-8.84,12.18-8.84,7.08,0,12.83,5.76,12.83,12.84,0,2.91-1.02,5.73-2.84,8,1.83,2.26,2.84,5.09,2.84,8,0,7.08-5.75,12.84-12.83,12.84Z"/>
</svg>